<?xml version="1.0" encoding="UTF-8"?>
<svg width="600" height="250" version="1.1" xmlns="http://www.w3.org/2000/svg">
 <path d="m461.85 189.5h48.36v-45.058h0.90252l21.656 45.058h57.026l-29.599-45.612c-2.7079-4.0985-5.7768-6.3384-8.2974-8.3843v-1.1163c18.4-6.3249 26.343-15.271 26.343-36.493 0-35.376-25.989-48.782-56.664-48.782h-59.727zm48.36-102.03h3.791c8.4779 0 15.879 1.3039 15.879 12.095 0 10.43-8.1236 11.741-16.234 11.741h-3.4366zm-156.55 101.9h94.046v-38.351h-43.64v-13.787h38.525v-36.486h-38.525v-13.406h42.176v-38.358h-92.582zm-66.037-140.39v79.15c0 11.119-0.36105 20.921-13.493 20.921-13.138 0-13.492-9.8018-13.492-20.921v-79.15h-49.31v84.051c0 41.467 24.832 60.308 62.802 60.308s62.796-18.841 62.796-60.308v-84.051zm-199.35 114.43 44.215 0.22766-4.4262 25.882 67.931-0.0201 5e-3 -175.62-64.641 0.13288-121.35 175.5 61.759-0.0151zm23.742-38.96 29.646-52.479 2.2064-0.0757c-1.4775 7.2009-3.0422 14.629-3.8512 21.803l-3.6773 29.833z" fill="#d11e39"/>
 <path d="m25.2 235.68c2.9285 0 5.1684-0.70128 6.7195-2.1061 1.5511-1.4044 2.3268-3.4835 2.3268-6.2314 0-1.8649-0.38762-3.2762-1.1701-4.239-0.78899-0.95517-1.8454-1.6451-3.1759-2.0594 1.0096-0.56098 1.8052-1.3513 2.3936-2.3736 0.59512-1.0234 0.88928-2.2999 0.88928-3.8377 0-2.4538-0.70199-4.3527-2.1061-5.6966-1.404-1.3513-3.5436-2.0192-6.412-2.0192h-14.455v28.563zm-9.0061-24.13h6.9201c1.7182 0 2.8884 0.31441 3.5302 0.93628 0.63514 0.61599 0.94935 1.5636 0.94935 2.8349 0 1.1562-0.30739 2.0459-0.92945 2.6812-0.6218 0.64252-1.6582 0.95522-3.1023 0.95522h-7.3679zm0 11.754h7.1876c1.8052 0 3.0555 0.31441 3.7509 0.9287 0.68875 0.62166 1.0363 1.5712 1.0363 2.8418 0 1.5712-0.35453 2.661-1.063 3.2828-0.70866 0.62165-1.8187 0.92868-3.323 0.92868h-7.5887zm26.036 12.376 2.6611-6.8734h10.517l2.7012 6.8734h6.2114l-10.865-28.563h-6.5657l-10.912 28.563zm7.8963-22.973 4.3928 11.487h-8.7387zm38.238 20.553c2.2733-1.9055 3.4099-4.6735 3.4099-8.3107v-17.832h-5.984v17.384c0 2.193-0.58831 3.8242-1.7518 4.9008-1.1701 1.0841-2.8349 1.6186-4.9945 1.6186-2.1529 0-3.8245-0.53445-5.0079-1.6186-1.1834-1.0765-1.7718-2.7078-1.7718-4.9008v-17.384h-5.9908v17.832c0 3.6372 1.1432 6.4052 3.4366 8.3107 2.2933 1.9124 5.4023 2.8617 9.3338 2.8617 3.9381 0 7.0404-0.94952 9.3204-2.8617m28.737 2.4205v-4.6135h-14.502v-7.3612h12.864v-4.6134h-12.864v-7.3212h14.502v-4.6537h-20.493v28.563zm10.156 0v-19.029l13.533 19.029h5.1884v-28.563h-5.9907v19.029l-13.526-19.029h-5.1884v28.563zm39.521 0v-9.0463l3.8111-4.1252 8.2105 13.172h6.3852l-10.865-16.989 10.33-11.574h-6.8732l-10.999 12.108v-12.108h-5.9907v28.563zm25.949 0 2.6611-6.8734h10.511l2.7079 6.8734h6.2047l-10.865-28.563h-6.5657l-10.912 28.563zm7.8963-22.973 4.3861 11.487h-8.7387zm24.344 22.973v-19.029l13.533 19.029h5.1884v-28.563h-5.9907v19.029l-13.526-19.029h-5.1883v28.563zm29.766 0v-19.029l13.526 19.029h5.1884v-28.563h-5.984v19.029l-13.533-19.029h-5.1884v28.563zm51.135-1.8195c1.8922-1.5105 2.8416-3.5034 2.8416-5.9905 0-1.357-0.24722-2.581-0.72871-3.6774-0.48792-1.0974-1.3706-2.0727-2.641-2.9286-1.2704-0.85664-3.0756-1.5977-5.4157-2.2197-1.6849-0.44179-2.9887-0.84155-3.9247-1.1978-0.92945-0.35453-1.5846-0.7562-1.9724-1.1959-0.38111-0.44179-0.57507-1.0367-0.57507-1.772 0-1.2698 0.53485-2.1062 1.5979-2.5073 1.063-0.40166 2.5273-0.6027 4.386-0.6027 2.6343 0 5.1616 0.46034 7.5887 1.3778v-5.2753c-0.91601-0.32795-2.1128-0.60837-3.5904-0.84149-1.4844-0.2407-3.0756-0.36205-4.794-0.36205-3.6639 0-6.4587 0.71452-8.3843 2.1327-1.9189 1.4177-2.8817 3.4433-2.8817 6.0777 0 2.1864 0.60836 3.9046 1.8185 5.1415 1.2101 1.2433 3.3096 2.28 6.2983 3.1092 1.8655 0.50226 3.3029 0.94956 4.3259 1.3513 1.0162 0.40167 1.7383 0.84907 2.153 1.3513 0.40768 0.50792 0.61498 1.1826 0.61498 2.0393 0 1.3646-0.48791 2.233-1.4574 2.6208-0.97628 0.3811-2.5006 0.57426-4.5733 0.57426-1.4442 0-2.9285-0.15144-4.4329-0.48892-1.5111-0.32043-2.9152-0.75619-4.2122-1.2831v5.2753c1.15 0.50226 2.5206 0.88888 4.0986 1.1561 1.5846 0.26176 3.2896 0.39414 5.1282 0.39414 3.9314 0 6.8399-0.74867 8.732-2.26m33.892-12.329c0-5.2352-1.1702-9.0194-3.5035-11.353-2.3402-2.3402-5.7968-3.5102-10.383-3.5102-4.58 0-8.0433 1.1694-10.377 3.5102-2.3401 2.3335-3.5035 6.1177-3.5035 11.353 0 9.7282 4.6267 14.589 13.88 14.589 9.2536 0 13.887-4.8608 13.887-14.589m-19.804 7.1608c-1.2569-1.5503-1.8854-3.9381-1.8854-7.1608 0-3.5769 0.62848-6.0976 1.8854-7.562 1.257-1.465 3.2294-2.1996 5.9172-2.1996 2.6945 0 4.6669 0.73539 5.9239 2.1996 1.2569 1.465 1.8854 3.985 1.8854 7.562 0 3.2227-0.62846 5.6096-1.8854 7.1608-1.257 1.5504-3.2294 2.3266-5.9239 2.3266-2.6878 0-4.6602-0.77515-5.9172-2.3266m51.336 5.1682c1.8922-1.5105 2.8415-3.5034 2.8415-5.9905 0-1.357-0.24721-2.5809-0.73532-3.6774-0.48793-1.0974-1.3641-2.0727-2.6344-2.9286-1.277-0.85669-3.0756-1.5977-5.4157-2.2198-1.6849-0.44178-2.9954-0.84149-3.9247-1.1978-0.92944-0.35452-1.5913-0.75618-1.9724-1.1959-0.38763-0.44178-0.57502-1.0367-0.57502-1.772 0-1.2698 0.52823-2.1062 1.5913-2.5073 1.0697-0.40167 2.534-0.60265 4.3928-0.60265 2.6344 0 5.1617 0.46034 7.5887 1.3778v-5.2753c-0.92258-0.32796-2.1194-0.60837-3.5971-0.8415-1.4775-0.24069-3.0756-0.36205-4.7872-0.36205-3.6706 0-6.4655 0.71453-8.3843 2.1327-1.9256 1.4177-2.8817 3.4434-2.8817 6.0778 0 2.1864 0.60174 3.9046 1.8187 5.1415 1.2101 1.2433 3.3096 2.28 6.2983 3.1092 1.8587 0.50226 3.3029 0.94955 4.3259 1.3513 1.0162 0.40167 1.7317 0.84912 2.1462 1.3514 0.4147 0.50793 0.62185 1.1826 0.62185 2.0393 0 1.3646-0.48791 2.233-1.4643 2.6208-0.97623 0.38111-2.4939 0.57426-4.5666 0.57426-1.4508 0-2.9285-0.15144-4.4329-0.48892-1.5111-0.32043-2.9151-0.7562-4.2189-1.2831v5.2753c1.1567 0.50225 2.5206 0.88887 4.1052 1.1561 1.5846 0.26176 3.2896 0.39415 5.1216 0.39415 3.9314 0 6.8465-0.74862 8.7387-2.2599m25.568 1.9057c1.3773-0.23317 2.6744-0.54773 3.8846-0.9287v-5.2753c-1.2437 0.50226-2.5407 0.87559-3.9047 1.1296-1.3572 0.24822-2.7346 0.37509-4.1253 0.37509-6.1512 0-9.2268-3.1357-9.2268-9.4005 0-3.343 0.71548-5.8236 2.1329-7.455 1.4175-1.6243 3.7509-2.4403 7.007-2.4403 2.8683 0 5.5561 0.52122 8.0701 1.5579v-5.2351c-1.2101-0.44731-2.5073-0.79602-3.8779-1.0424-1.3773-0.25423-2.9218-0.3811-4.6335-0.3811-4.9143 0-8.5983 1.3172-11.072 3.9515-2.4672 2.6342-3.6974 6.3116-3.6974 11.045 0 4.4662 1.2704 7.9898 3.811 10.577 2.5407 2.5876 6.2114 3.8779 10.999 3.8779 1.7182 0 3.2628-0.11383 4.6334-0.35451m14.041-0.0948v-11.975h12.463v11.975h5.9907v-28.563h-5.9907v11.975h-12.463v-11.975h-5.9907v28.563zm34.507-35.971h-4.7003v4.3459h4.7003zm8.6919 0h-4.7004v4.3459h4.7004zm7.1875 21.823c0-5.2352-1.1702-9.0194-3.5035-11.353-2.3334-2.3403-5.7968-3.5102-10.377-3.5102-4.5867 0-8.0434 1.1694-10.384 3.5102-2.3334 2.3335-3.5035 6.1177-3.5035 11.353 0 9.7282 4.6267 14.589 13.887 14.589 9.2535 0 13.88-4.8608 13.88-14.589m-19.804 7.1608c-1.257-1.5503-1.8854-3.9381-1.8854-7.1608 0-3.5769 0.62847-6.0976 1.8854-7.562 1.257-1.465 3.2294-2.1996 5.9238-2.1996 2.6878 0 4.6602 0.73539 5.9172 2.1996 1.257 1.465 1.8854 3.985 1.8854 7.562 0 3.2227-0.62848 5.6096-1.8854 7.1608-1.257 1.5504-3.2294 2.3266-5.9172 2.3266-2.6945 0-4.6669-0.77515-5.9238-2.3266m29.96 6.9869v-19.029l13.526 19.029h5.1951v-28.563h-5.9907v19.029l-13.526-19.029h-5.1883v28.563zm51.142-1.8195c1.8922-1.5105 2.8349-3.5034 2.8349-5.9905 0-1.357-0.2407-2.581-0.72871-3.6774-0.48792-1.0974-1.3706-2.0727-2.641-2.9286-1.2704-0.85664-3.0756-1.5977-5.409-2.2197-1.6849-0.44178-2.9954-0.84149-3.9247-1.1978-0.93607-0.35453-1.5913-0.75619-1.9724-1.1959-0.38763-0.44178-0.58164-1.0367-0.58164-1.772 0-1.2698 0.5348-2.1062 1.5979-2.5073 1.063-0.40167 2.5273-0.6027 4.3928-0.6027 2.6276 0 5.1616 0.46033 7.582 1.3779v-5.2753c-0.91602-0.32795-2.1128-0.60836-3.5904-0.84149-1.4776-0.2407-3.0756-0.36205-4.7939-0.36205-3.664 0-6.4588 0.71452-8.3777 2.1327-1.9256 1.4177-2.8884 3.4434-2.8884 6.0777 0 2.1864 0.60836 3.9046 1.8187 5.1415 1.217 1.2433 3.3163 2.28 6.2983 3.1092 1.8653 0.50226 3.3096 0.94956 4.3259 1.3513 1.0229 0.40166 1.7384 0.84911 2.1529 1.3513 0.4147 0.50792 0.62185 1.1827 0.62185 2.0393 0 1.3646-0.48791 2.233-1.4643 2.6208-0.97623 0.3811-2.5006 0.57427-4.5666 0.57427-1.4509 0-2.9285-0.15144-4.4396-0.48892-1.5043-0.32043-2.9084-0.7562-4.2122-1.2831v5.2753c1.1567 0.50225 2.5207 0.88888 4.1053 1.1561 1.578 0.26176 3.2896 0.39414 5.1215 0.39414 3.9314 0 6.8466-0.74863 8.7387-2.2599m27.5 1.8194v-4.6036h-14.509v-7.3612h12.864v-4.6134h-12.864v-7.3212h14.509v-4.6537h-20.493v28.563zm10.156-28.563h-5.9907v28.563h5.9907zm11.045 28.563v-19.029l13.526 19.029h5.1884v-28.563h-5.9841v19.029l-13.533-19.029h-5.1884v28.563z" fill="#393536"/>
</svg>
