<svg width="64" height="64" viewBox="0 0 64 64" fill="none" xmlns="http://www.w3.org/2000/svg">
<rect x="8" y="23" width="34" height="34" rx="17" fill="#46AEF1" fill-opacity="0.4"/>
<path d="M53.3469 33.4641L36.6834 18.59C36.1891 18.0976 35.533 17.8273 34.8344 17.8273C34.1359 17.8273 33.4797 18.0986 33.015 18.5625L31.834 19.6172C31.4601 19.3961 31.0289 19.2742 30.5859 19.2742C29.9821 19.2742 29.4019 19.4953 28.953 19.8974L26.6048 21.993L26.2979 20.0183L25.4839 20.8331L25.2304 20.5805C25.1445 20.496 25.0084 20.496 24.9225 20.5805C24.8387 20.6651 24.8387 20.8017 24.9225 20.8862L25.1771 21.1398L24.3631 21.9557L26.3187 22.2466L22.9364 25.2663L22.6237 23.2463L21.8097 24.0612L21.5561 23.8095C21.4703 23.725 21.3331 23.725 21.2493 23.8095C21.1644 23.8941 21.1644 24.0307 21.2493 24.1152L21.5038 24.3679L20.6898 25.1827L22.6967 25.4806L19.9222 27.9566C19.4358 28.3911 19.1477 28.9897 19.1122 29.6394C19.0905 30.0375 19.1753 30.4209 19.3361 30.7728L16.2548 33.5231C16.0279 33.7256 15.95 34.046 16.0595 34.3291C16.168 34.6122 16.4413 34.799 16.7452 34.799H21.4387V49.3909C21.4387 50.3591 22.228 51.1455 23.1999 51.1455H29.1859V51.7136C29.1859 52.9738 30.2149 54 31.4808 54H38.191C39.4559 54 40.4859 52.9748 40.4859 51.7136V51.1455H46.4709C47.4418 51.1455 48.2311 50.3582 48.2311 49.3909V34.8009H52.9355C53.341 34.8009 53.6695 34.4736 53.6695 34.0696C53.6695 33.818 53.5422 33.5958 53.3479 33.4641H53.3469ZM20.9029 29.0477L29.9327 20.9875C30.1123 20.8272 30.3452 20.7388 30.5859 20.7388C30.8681 20.7388 31.1266 20.8538 31.315 21.0632C31.6752 21.4642 31.6416 22.0815 31.2401 22.4413L22.2103 30.5015C21.8225 30.8475 21.1733 30.8111 20.828 30.4268C20.6533 30.2331 20.5645 29.9825 20.5793 29.722C20.5941 29.4615 20.7086 29.2227 20.9039 29.0487L20.9029 29.0477ZM23.1989 49.6858C23.0371 49.6858 22.9068 49.5541 22.9068 49.3939V34.0696C22.9068 33.6656 22.5773 33.3383 22.1718 33.3383H18.6633L20.307 31.8698C20.6819 32.0909 21.1121 32.2118 21.5551 32.2118C22.1589 32.2118 22.7391 31.9907 23.188 31.5896L27.256 27.9586L29.4799 30.1742C29.618 30.3108 29.8045 30.3884 29.9988 30.3884H34.0984V42.7442H31.4778C30.213 42.7442 29.1829 43.7694 29.1829 45.0305V49.6848H23.1969L23.1989 49.6858ZM39.0158 51.7166C39.0158 52.1707 38.6458 52.5393 38.19 52.5393H31.4798C31.024 52.5393 30.654 52.1707 30.654 51.7166V45.0315C30.654 44.5774 31.024 44.2088 31.4798 44.2088H38.19C38.6458 44.2088 39.0158 44.5774 39.0158 45.0315V51.7166ZM47.4961 33.3383C47.0905 33.3383 46.762 33.6656 46.762 34.0696V49.3939C46.762 49.5541 46.6318 49.6858 46.4709 49.6858H40.4859V45.0315C40.4859 43.7714 39.4569 42.7452 38.191 42.7452H35.5704V29.6571C35.5704 29.2531 35.2419 28.9258 34.8364 28.9258H30.3077L28.3561 26.9815L32.2228 23.5294C32.7092 23.0939 32.9973 22.4963 33.0338 21.8466C33.0555 21.4485 32.9706 21.0651 32.8098 20.7122L34.0273 19.6241C34.4595 19.1926 35.1847 19.1651 35.676 19.6516L51.0066 33.3373H47.498L47.4961 33.3383Z" fill="#212121"/>
<path d="M35.7648 44.7916L32.5089 49.3004H34.9617L34.0313 51.9544L37.161 48.3735H34.5809L35.7648 44.7916Z" fill="#212121"/>
<path d="M20.2705 22.8354C20.1867 22.9199 20.1867 23.0565 20.2705 23.1411L20.5379 23.4074C20.5803 23.4497 20.6366 23.4704 20.6918 23.4704C20.7471 23.4704 20.8033 23.4487 20.8458 23.4074C20.9306 23.3229 20.9306 23.1863 20.8458 23.1018L20.5784 22.8364C20.4925 22.7508 20.3564 22.7518 20.2705 22.8364V22.8354Z" fill="#212121"/>
<path d="M19.2908 21.8613C19.206 21.9458 19.2069 22.0834 19.2908 22.1679L19.5582 22.4333C19.5996 22.4746 19.6559 22.4962 19.7111 22.4962C19.7664 22.4962 19.8226 22.4746 19.865 22.4333C19.9499 22.3488 19.9489 22.2112 19.865 22.1266L19.5977 21.8613C19.5128 21.7777 19.3747 21.7767 19.2908 21.8613Z" fill="#212121"/>
<path d="M18.3121 20.8862C18.2272 20.9707 18.2272 21.1073 18.3121 21.1919L18.5784 21.4582C18.6209 21.5005 18.6771 21.5211 18.7324 21.5211C18.7876 21.5211 18.8429 21.5005 18.8853 21.4582C18.9701 21.3737 18.9701 21.2371 18.8853 21.1525L18.6189 20.8862C18.534 20.8006 18.3969 20.8016 18.3121 20.8862Z" fill="#212121"/>
<path d="M22.9642 18.6323C22.8793 18.7168 22.8793 18.8534 22.9642 18.938L23.2305 19.2033C23.274 19.2456 23.3292 19.2663 23.3845 19.2663C23.4397 19.2663 23.495 19.2456 23.5384 19.2033C23.6232 19.1188 23.6232 18.9822 23.5384 18.8976L23.272 18.6323C23.1861 18.5467 23.049 18.5477 22.9642 18.6323Z" fill="#212121"/>
<path d="M21.9854 17.6582C21.9005 17.7428 21.9005 17.8794 21.9854 17.9639L22.2528 18.2293C22.2942 18.2716 22.3505 18.2932 22.4057 18.2932C22.461 18.2932 22.5172 18.2716 22.5596 18.2293C22.6445 18.1448 22.6445 18.0082 22.5596 17.9236L22.2922 17.6582C22.2074 17.5737 22.0702 17.5737 21.9854 17.6582Z" fill="#212121"/>
<path d="M24.2113 20.1784C24.2537 20.2207 24.3089 20.2414 24.3652 20.2414C24.4214 20.2414 24.4757 20.2207 24.5191 20.1784C24.6039 20.0939 24.6039 19.9573 24.5191 19.8727L24.2517 19.6073C24.1669 19.5228 24.0297 19.5228 23.9449 19.6073C23.86 19.6919 23.86 19.8285 23.9449 19.913L24.2122 20.1784H24.2113Z" fill="#212121"/>
<path d="M20.461 16.1395C20.461 14.3279 18.981 12.8535 17.1626 12.8535C15.3442 12.8535 13.8643 14.3279 13.8643 16.1395C13.8643 17.9511 15.3442 19.4256 17.1626 19.4256C18.981 19.4256 20.461 17.9511 20.461 16.1395ZM14.844 16.1395C14.844 14.8656 15.8839 13.8286 17.1636 13.8286C18.4433 13.8286 19.4832 14.8646 19.4832 16.1395C19.4832 17.4144 18.4423 18.4495 17.1636 18.4495C15.8849 18.4495 14.844 17.4134 14.844 16.1395Z" fill="#212121"/>
<path d="M17.1626 12.5734C17.4329 12.5734 17.652 12.3552 17.652 12.0858V10.4875C17.652 10.2182 17.4329 10 17.1626 10C16.8923 10 16.6732 10.2182 16.6732 10.4875V12.0848C16.6732 12.3542 16.8923 12.5724 17.1626 12.5724V12.5734Z" fill="#212121"/>
<path d="M16.6732 20.1942V21.7915C16.6732 22.0608 16.8923 22.2791 17.1626 22.2791C17.4329 22.2791 17.652 22.0608 17.652 21.7915V20.1942C17.652 19.9249 17.4329 19.7067 17.1626 19.7067C16.8923 19.7067 16.6732 19.9249 16.6732 20.1942Z" fill="#212121"/>
<path d="M13.9392 13.6182C14.0349 13.7136 14.1602 13.7608 14.2855 13.7608C14.4108 13.7608 14.5361 13.7136 14.6318 13.6182C14.8232 13.4275 14.8232 13.1189 14.6318 12.9282L13.4982 11.7978C13.3068 11.6081 12.997 11.6081 12.8055 11.7978C12.6141 11.9885 12.6141 12.2971 12.8055 12.4878L13.9392 13.6182Z" fill="#212121"/>
<path d="M21.5206 20.4813C21.712 20.2906 21.712 19.9819 21.5206 19.7912L20.387 18.6618C20.1956 18.4711 19.8857 18.4711 19.6943 18.6618C19.5029 18.8525 19.5029 19.1612 19.6943 19.3519L20.828 20.4813C20.9237 20.5766 21.049 20.6238 21.1743 20.6238C21.2996 20.6238 21.4249 20.5766 21.5206 20.4813Z" fill="#212121"/>
<path d="M13.583 16.1395C13.583 15.8702 13.364 15.652 13.0937 15.652H11.4894C11.219 15.652 11 15.8702 11 16.1395C11 16.4089 11.219 16.6271 11.4894 16.6271H13.0937C13.364 16.6271 13.583 16.4089 13.583 16.1395Z" fill="#212121"/>
<path d="M20.7432 16.1395C20.7432 16.4089 20.9622 16.6271 21.2325 16.6271H22.8368C23.1062 16.6271 23.3262 16.4089 23.3262 16.1395C23.3262 15.8702 23.1062 15.652 22.8368 15.652H21.2325C20.9622 15.652 20.7432 15.8702 20.7432 16.1395Z" fill="#212121"/>
<path d="M13.9392 18.6618L12.8055 19.7912C12.6141 19.9809 12.6141 20.2906 12.8055 20.4813C12.9012 20.5766 13.0266 20.6238 13.1519 20.6238C13.2772 20.6238 13.4025 20.5766 13.4982 20.4813L14.6318 19.3519C14.8232 19.1612 14.8232 18.8525 14.6318 18.6618C14.4404 18.4711 14.1306 18.4711 13.9392 18.6618Z" fill="#212121"/>
<path d="M20.0407 13.7598C20.166 13.7598 20.2913 13.7126 20.387 13.6163L21.5206 12.4869C21.712 12.2971 21.712 11.9875 21.5206 11.7968C21.3292 11.6071 21.0194 11.6071 20.828 11.7968L19.6943 12.9262C19.5029 13.1169 19.5029 13.4256 19.6943 13.6163C19.79 13.7116 19.9153 13.7598 20.0407 13.7598Z" fill="#212121"/>
</svg>
