<svg width="64" height="64" viewBox="0 0 64 64" fill="none" xmlns="http://www.w3.org/2000/svg">
<mask id="mask0_3_856" style="mask-type:alpha" maskUnits="userSpaceOnUse" x="33" y="11" width="22" height="21">
<rect x="41.9521" y="11.1057" width="16.9517" height="12" transform="rotate(42 41.9521 11.1057)" fill="#D9D9D9"/>
</mask>
<g mask="url(#mask0_3_856)">
<rect x="34" y="19" width="12.4" height="12.4" rx="6.2" fill="#EBCF39" fill-opacity="0.4"/>
</g>
<rect x="8" y="23" width="34" height="34" rx="17" fill="#EBCF39" fill-opacity="0.5"/>
<path d="M48.0092 34.3243L31.4901 19.4542C31.0006 18.9624 30.3513 18.692 29.659 18.692C28.9667 18.692 28.3173 18.9624 27.8561 19.4268L11.2415 34.384C11.0172 34.5858 10.9402 34.9052 11.0484 35.1873C11.1557 35.4695 11.4258 35.6566 11.7261 35.6566H16.3809V50.2465C16.3819 51.2134 17.1629 52.0001 18.1243 52.0001H41.1927C42.1541 52.0001 42.9351 51.2134 42.9351 50.2465V35.6566H47.5909C47.5909 35.6566 47.5987 35.6566 47.6007 35.6566C48.0014 35.6566 48.3261 35.3304 48.3261 34.9277C48.3261 34.6769 48.2003 34.4555 48.0083 34.3243H48.0092ZM42.2107 34.1989C41.8099 34.1989 41.4852 34.5251 41.4852 34.9277V50.2475C41.4852 50.4101 41.3546 50.5423 41.1937 50.5423H18.1243C17.9634 50.5423 17.8327 50.4101 17.8327 50.2475V34.9277C17.8327 34.5251 17.5071 34.1989 17.1063 34.1989H13.6235L28.8536 20.4848C29.2836 20.0527 30.0042 20.0253 30.4926 20.5122L45.6945 34.1979H42.2097L42.2107 34.1989Z" fill="#212121"/>
<path d="M30.2577 29.8659C30.2577 29.4632 29.933 29.137 29.5323 29.137C29.1316 29.137 28.8069 29.4632 28.8069 29.8659V31.7782L27.1103 30.0736C26.8266 29.7885 26.3673 29.7885 26.0836 30.0736C25.7998 30.3586 25.7998 30.8201 26.0836 31.1051L28.8069 33.8403V36.646L26.3888 35.2432L25.3923 31.5058C25.288 31.1169 24.8901 30.8886 24.503 30.9905C24.116 31.0953 23.8868 31.4941 23.9892 31.884L24.6103 34.2126L22.9615 33.2555C22.6144 33.0537 22.1698 33.1742 21.9699 33.5219C21.769 33.8707 21.888 34.3164 22.2351 34.5182L23.8839 35.4753L21.5653 36.0984C21.1782 36.2032 20.949 36.6029 21.0524 36.9909C21.1392 37.3171 21.4326 37.5316 21.7525 37.5316C21.8149 37.5316 21.8773 37.5238 21.9416 37.5071L25.6614 36.505L28.0795 37.9078L25.6614 39.3107L21.9416 38.3095C21.5545 38.2066 21.1557 38.4358 21.0524 38.8248C20.949 39.2137 21.1782 39.6134 21.5653 39.7182L23.8829 40.3413L22.2341 41.2974C21.887 41.4982 21.7681 41.944 21.9689 42.2937C22.1035 42.5278 22.3472 42.6581 22.5978 42.6581C22.7217 42.6581 22.8465 42.6268 22.9605 42.5602L24.6093 41.604L23.9882 43.9317C23.8849 44.3206 24.115 44.7203 24.5021 44.8251C24.5654 44.8418 24.6288 44.8496 24.6903 44.8496C25.011 44.8496 25.3045 44.6351 25.3913 44.3098L26.3878 40.5725L28.8059 39.1696V41.9753L26.0826 44.7105C25.7989 44.9956 25.7989 45.457 26.0826 45.7421C26.3663 46.0271 26.8256 46.0271 27.1093 45.7421L28.8059 44.0375V45.9507C28.8059 46.3534 29.1306 46.6796 29.5313 46.6796C29.9321 46.6796 30.2568 46.3534 30.2568 45.9507V44.0375L31.9543 45.7421C32.0967 45.8851 32.2819 45.9556 32.4672 45.9556C32.6524 45.9556 32.8387 45.8851 32.98 45.7421C33.2638 45.457 33.2638 44.9956 32.98 44.7105L30.2568 41.9753V39.1686L32.6758 40.5715L33.6723 44.3088C33.7591 44.6341 34.0526 44.8486 34.3724 44.8486C34.4348 44.8486 34.4982 44.8408 34.5606 44.8241C34.9477 44.7193 35.1778 44.3206 35.0734 43.9307L34.4523 41.6021L36.1011 42.5582C36.2152 42.6248 36.34 42.6562 36.4629 42.6562C36.7144 42.6562 36.9582 42.5259 37.0928 42.2917C37.2926 41.943 37.1737 41.4972 36.8275 41.2954L35.1797 40.3393L37.4964 39.7162C37.8835 39.6114 38.1126 39.2127 38.0093 38.8228C37.9059 38.4339 37.5081 38.2046 37.1201 38.3075L33.4013 39.3077L30.9832 37.9049L33.4013 36.502L37.1201 37.5042C37.1834 37.5209 37.2468 37.5287 37.3082 37.5287C37.628 37.5287 37.9215 37.3141 38.0083 36.9889C38.1126 36.6 37.8825 36.2003 37.4954 36.0955L35.1788 35.4724L36.8266 34.5163C37.1727 34.3154 37.2926 33.8687 37.0918 33.52C36.8919 33.1712 36.4483 33.0517 36.1002 33.2525L34.4514 34.2096L35.0725 31.881C35.1768 31.4921 34.9467 31.0924 34.5596 30.9876C34.1735 30.8857 33.7747 31.1149 33.6713 31.5029L32.6749 35.2402L30.2558 36.6431V33.8364L32.9791 31.1012C33.2628 30.8161 33.2628 30.3547 32.9791 30.0696C32.6963 29.7846 32.2361 29.7846 31.9523 30.0696L30.2548 31.7742V29.862L30.2577 29.8659Z" fill="#212121"/>
<path d="M36.2504 21.5673C37.2322 20.4798 38.5768 19.8421 40.0364 19.7696C41.499 19.704 42.8962 20.2026 43.9785 21.1891C46.2123 23.2258 46.381 26.7094 44.3539 28.9548C44.0848 29.2526 44.1072 29.714 44.4046 29.9844C44.5431 30.1108 44.7176 30.1735 44.8921 30.1735C45.0901 30.1735 45.286 30.0931 45.4304 29.9344C47.9947 27.0934 47.7812 22.686 44.9545 20.1086C43.5846 18.8605 41.8178 18.2208 39.9672 18.3129C38.1195 18.403 36.419 19.2102 35.1768 20.5866C34.9077 20.8844 34.9302 21.3459 35.2266 21.6162C35.523 21.8876 35.9832 21.8641 36.2513 21.5663L36.2504 21.5673Z" fill="#212121"/>
<path d="M52.9283 27.2619L49.1236 26.4341C48.7307 26.3479 48.3456 26.5987 48.2607 26.9925C48.1759 27.3864 48.4245 27.7743 48.8165 27.8595L52.6211 28.6873C52.6728 28.6991 52.7245 28.704 52.7752 28.704C53.1096 28.704 53.4099 28.4708 53.484 28.1299C53.5689 27.7361 53.3202 27.3482 52.9283 27.2629V27.2619Z" fill="#212121"/>
<path d="M48.0561 22.7624C48.1545 23.072 48.4402 23.2689 48.7474 23.2689C48.8205 23.2689 48.8956 23.2581 48.9687 23.2336L52.6758 22.0394C53.057 21.917 53.2676 21.5065 53.1458 21.1225C53.0229 20.7394 52.6163 20.5288 52.2331 20.6503L48.526 21.8445C48.1448 21.9679 47.9342 22.3784 48.0561 22.7614V22.7624Z" fill="#212121"/>
<path d="M46.2609 19.3914C46.4588 19.3914 46.6548 19.3101 46.7991 19.1524L49.4141 16.2556C49.6842 15.9578 49.6608 15.4964 49.3644 15.226C49.067 14.9556 48.6097 14.9772 48.3387 15.2759L45.7226 18.1728C45.4535 18.4706 45.476 18.932 45.7733 19.2024C45.9118 19.3287 46.0863 19.3914 46.2609 19.3914Z" fill="#212121"/>
<path d="M42.0262 17.2647C42.0779 17.2764 42.1296 17.2813 42.1803 17.2813C42.5147 17.2813 42.816 17.0482 42.8882 16.7063L43.7121 12.8837C43.7969 12.4898 43.5483 12.1019 43.1563 12.0167C42.7643 11.9314 42.3792 12.1813 42.2934 12.5751L41.4705 16.3977C41.3856 16.7915 41.6343 17.1794 42.0262 17.2647Z" fill="#212121"/>
<path d="M36.9026 16.9982C37.001 17.3078 37.2858 17.5047 37.5929 17.5047C37.666 17.5047 37.7411 17.4939 37.8152 17.4694C38.1964 17.3469 38.4071 16.9365 38.2842 16.5524L37.0956 12.8278C36.9737 12.4438 36.5642 12.2322 36.183 12.3556C35.8017 12.4781 35.5911 12.8886 35.714 13.2726L36.9026 16.9972V16.9982Z" fill="#212121"/>
</svg>
