<svg width="64" height="64" viewBox="0 0 64 64" fill="none" xmlns="http://www.w3.org/2000/svg">
<rect x="21" y="24" width="34" height="34" rx="17" fill="#F3E599"/>
<path d="M51.898 29.281L33.6562 12.843C33.1151 12.2998 32.3968 12 31.6321 12C30.8674 12 30.1492 12.2998 29.6404 12.8126L11.2928 29.3483C11.0444 29.5721 10.9591 29.9262 11.0779 30.2391C11.1978 30.552 11.4959 30.7584 11.8285 30.7584H16.9676V40.9892L11.2183 47.1333C11.0357 47.3278 10.9623 47.5994 11.0185 47.8601C11.0746 48.1208 11.255 48.3359 11.5013 48.4369L20.0762 51.9403C20.1745 51.9804 20.2771 52 20.3786 52C20.6303 52 20.8765 51.8794 21.031 51.6632L23.0616 48.8247H44.3708C45.4336 48.8247 46.2977 47.9546 46.2977 46.8857V30.7584H51.4476C51.8915 30.7584 52.2512 30.3966 52.2512 29.9501C52.2512 29.672 52.1119 29.4265 51.8991 29.281H51.898ZM20.0945 50.2032L13.1927 47.3832L24.9172 34.8537L30.0401 36.2963L20.0945 50.2022V50.2032ZM45.493 29.1419C45.0491 29.1419 44.6894 29.5037 44.6894 29.9501V46.8857C44.6894 47.0627 44.5458 47.2083 44.3708 47.2083H24.2183L32.0177 36.3029C32.1711 36.0878 32.2111 35.8119 32.1236 35.5631C32.0372 35.3143 31.8341 35.1231 31.5814 35.0514L24.8826 33.1645C24.5942 33.0841 24.2853 33.17 24.0812 33.3883L18.5759 39.2707V29.9491C18.5759 29.5026 18.2162 29.1408 17.7712 29.1408H13.9304L30.7464 13.9869C31.2195 13.51 32.0145 13.4796 32.5524 14.0173L49.3349 29.1419H45.4941H45.493Z" fill="#212121"/>
<path d="M30.8955 29.7927C28.8077 29.1311 26.5881 29.3266 24.6461 30.3434C24.2519 30.5498 24.0996 31.0376 24.3037 31.4341C24.5089 31.8295 24.995 31.9837 25.3881 31.7773C26.95 30.9593 28.7343 30.8029 30.4127 31.3352C32.0912 31.8675 33.4629 33.0255 34.2763 34.5952C34.4199 34.8722 34.6997 35.0308 34.9902 35.0308C35.1144 35.0308 35.2419 35.0015 35.3607 34.9396C35.7538 34.7343 35.9072 34.2454 35.702 33.85C34.691 31.8968 32.9845 30.4564 30.8966 29.7948L30.8955 29.7927Z" fill="#212121"/>
<path d="M23.094 27.3462C22.6997 27.5526 22.5475 28.0404 22.7516 28.4369C22.9568 28.8323 23.4429 28.9854 23.836 28.7801C26.1928 27.545 28.8865 27.3082 31.4226 28.1121C33.9576 28.9148 36.0303 30.6638 37.2573 33.0341C37.401 33.3111 37.6807 33.4697 37.9712 33.4697C38.0955 33.4697 38.2229 33.4404 38.3417 33.3785C38.7349 33.1732 38.8882 32.6843 38.683 32.2889C37.2573 29.5351 34.8508 27.5048 31.9054 26.5717C28.9611 25.6385 25.8309 25.9145 23.094 27.3484V27.3462Z" fill="#212121"/>
<path d="M25.0415 37.4532C25.5815 37.4532 26.0189 37.123 26.0189 36.7156C26.0189 36.3083 25.5815 35.978 25.0415 35.978C24.5014 35.978 24.064 36.3083 24.064 36.7156C24.064 37.123 24.5014 37.4532 25.0415 37.4532Z" fill="#212121"/>
<path d="M27.436 36.6667C26.8959 36.6667 26.4585 36.997 26.4585 37.4043C26.4585 37.8117 26.8959 38.142 27.436 38.142C27.976 38.142 28.4135 37.8117 28.4135 37.4043C28.4135 36.997 27.976 36.6667 27.436 36.6667Z" fill="#212121"/>
<path d="M23.4775 37.8466C22.9374 37.8466 22.5 38.1768 22.5 38.5842C22.5 38.9915 22.9374 39.3218 23.4775 39.3218C24.0175 39.3218 24.455 38.9915 24.455 38.5842C24.455 38.1768 24.0175 37.8466 23.4775 37.8466Z" fill="#212121"/>
<path d="M25.872 38.5353C25.332 38.5353 24.8945 38.8655 24.8945 39.2729C24.8945 39.6802 25.332 40.0105 25.872 40.0105C26.4121 40.0105 26.8495 39.6802 26.8495 39.2729C26.8495 38.8655 26.4121 38.5353 25.872 38.5353Z" fill="#212121"/>
<path d="M19.7144 43.3041L21.4739 41.1401L19.6658 41.6322L19.7144 43.3041Z" fill="#212121"/>
<path d="M22.0117 44.0906L23.8198 43.5985L23.7712 41.9266L22.0117 44.0906Z" fill="#212121"/>
<path d="M18.8794 44.812C17.849 44.7001 16.9936 45.2334 16.9147 45.9873C16.8348 46.7543 17.5725 47.4397 18.5943 47.5484C18.6818 47.5581 18.7693 47.5614 18.8546 47.5614C19.7705 47.5614 20.4877 47.0617 20.559 46.3719C20.6389 45.605 19.9012 44.9184 18.8794 44.8109V44.812ZM18.6494 47.0128C17.9516 46.939 17.4008 46.4947 17.4472 46.0449C17.4893 45.6419 17.9927 45.3377 18.6181 45.3377C18.6861 45.3377 18.7541 45.341 18.8243 45.3486C19.5221 45.4225 20.0729 45.8657 20.0265 46.3176C19.979 46.763 19.3633 47.0878 18.6505 47.0128H18.6494Z" fill="#212121"/>
</svg>
