<svg width="64" height="64" viewBox="0 0 64 64" fill="none" xmlns="http://www.w3.org/2000/svg">
<rect x="24" y="27" width="31" height="31" rx="15.5" fill="#46AEF1" fill-opacity="0.4"/>
<path d="M19.5 38L20.5 34.5L26.5 35.5L27.5 38L27 40.5L23.5 41.5L22 41L20.5 39.5L19.5 38Z" fill="#B2DCF6"/>
<path d="M28.4097 35.6573C28.4097 36.8051 29.3433 37.7382 30.4904 37.7382C31.6375 37.7382 32.57 36.8051 32.57 35.6573C32.57 34.5096 31.6375 33.5765 30.4904 33.5765C29.3433 33.5765 28.4097 34.5096 28.4097 35.6573Z" fill="#212121"/>
<path d="M29.3311 32.7424C28.7547 30.3997 28.9356 28.4897 29.8659 27.4094C30.5816 26.5775 31.7511 26.2504 33.16 26.4899C33.933 26.6214 34.7329 27.1183 35.216 27.6983C33.8341 28.1412 32.7376 28.4864 31.4388 27.6871C31.177 27.5252 30.8344 27.6073 30.6726 27.8703C30.5108 28.1334 30.5928 28.4762 30.8557 28.6381C31.6287 29.1136 32.3567 29.2823 33.0555 29.2823C33.9319 29.2823 34.7633 29.0158 35.5789 28.755C35.6081 28.746 35.6385 28.737 35.6677 28.7269C35.6609 28.9506 35.5666 29.2159 35.2284 29.4947C33.9858 30.5177 32.6578 31.8183 31.9242 32.8683C32.4365 33.1325 32.8645 33.5338 33.1645 34.0228C33.5409 33.4248 34.5824 32.1938 36.2912 30.7864C37.0934 30.1254 37.4496 29.2294 37.3035 28.293C38.081 28.157 38.9157 28.157 39.8561 28.4571V29.8466L41.9144 28.0772L39.8572 26.3077V27.2903C38.7596 27.0002 37.7934 27.0497 36.9137 27.2273C36.253 26.0559 34.8981 25.088 33.4409 24.8407C31.4332 24.5012 29.7131 25.0251 28.5997 26.3179C27.1863 27.9591 26.9583 30.6312 27.9166 33.8688C28.266 33.3674 28.757 32.9729 29.3322 32.7435L29.3311 32.7424Z" fill="#212121"/>
<path d="M23.1619 40.67C22.0833 40.4654 21.216 39.6144 20.7182 38.2744C20.334 37.2379 20.5419 35.7855 21.1643 35.165C21.3519 34.9773 21.6744 34.7535 22.2855 34.9829C24.0225 35.6338 26.1324 36.2003 27.4009 36.1812C27.3717 36.0104 27.3537 35.8361 27.3537 35.6574C27.3537 35.2459 27.4346 34.8547 27.5784 34.495C27.5784 34.495 27.5761 34.495 27.575 34.495C27.2031 34.5872 25.3831 34.3567 22.8709 33.4158C21.7991 33.0134 20.7452 33.2191 19.9835 33.9801C18.8836 35.0773 18.5263 37.1739 19.151 38.8578C19.861 40.7689 21.1755 41.9965 22.8507 42.3146C23.1349 42.3686 23.4237 42.3955 23.718 42.3955C25.7347 42.3955 27.9593 41.1354 30.0793 38.769C30.0793 38.769 30.0793 38.7679 30.0816 38.7668C29.4704 38.6858 28.9142 38.4307 28.466 38.0496C26.5897 40.0056 24.6741 40.9555 23.1641 40.6711L23.1619 40.67Z" fill="#212121"/>
<path d="M33.5453 34.9604C33.597 35.1852 33.6262 35.4179 33.6262 35.6585C33.6262 36.0126 33.5644 36.3509 33.4565 36.6691C35.8743 37.3346 37.5068 38.4688 37.9899 39.8504C38.3528 40.8869 38.0494 42.0639 37.1383 43.1644C36.4338 44.0154 35.0699 44.5618 34.2239 44.3335C33.9666 44.2639 33.6127 44.0975 33.506 43.4533C33.2004 41.621 32.6341 39.5064 31.9825 38.4171C31.5387 38.6588 31.0298 38.796 30.4894 38.796C30.4096 38.796 30.3321 38.7903 30.2534 38.7836C30.2905 38.9028 30.3478 39.0163 30.4388 39.1119C30.7051 39.3906 31.4151 41.0814 31.8567 43.7276C32.0454 44.8585 32.7499 45.6679 33.7891 45.9478C34.0655 46.022 34.3587 46.058 34.6598 46.058C35.9945 46.058 37.4933 45.3588 38.4269 44.2301C39.7268 42.6608 40.1313 40.9082 39.5684 39.2973C38.8662 37.2851 36.7383 35.7585 33.5453 34.9592V34.9604Z" fill="#212121"/>
<path d="M42.4828 32.1083C41.0155 31.8059 39.8055 32.2027 38.8078 32.5355C37.6315 32.9267 36.781 33.2111 35.8092 32.4152C35.571 32.2207 35.2193 32.2545 35.025 32.4939C34.8306 32.7322 34.8643 33.0841 35.1036 33.2786C35.7991 33.8474 36.4675 34.0419 37.1158 34.0419C37.8169 34.0419 38.4943 33.8159 39.1606 33.5933C40.1672 33.2572 41.2087 32.92 42.4828 33.2538V34.4623L44.5411 32.6929L42.4828 30.9235V32.1072V32.1083Z" fill="#212121"/>
<path d="M52.7203 31.0067L45.0995 24.1741V17.1279C45.0995 16.6659 44.7254 16.2915 44.2636 16.2915H38.1675C37.7057 16.2915 37.3316 16.6659 37.3316 17.1279V17.21L33.6094 13.8746C33.0465 13.3103 32.2971 13 31.4994 13C30.7017 13 29.9535 13.3103 29.4221 13.8431L10.2786 31.0067C10.0202 31.2383 9.93146 31.6047 10.055 31.9285C10.1798 32.2523 10.4898 32.467 10.8359 32.467H16.2006V49.2101C16.2006 50.3197 17.1017 51.2212 18.2095 51.2212H44.7917C45.8983 51.2212 46.7994 50.3185 46.7994 49.2101V32.467H52.1641C52.5113 32.467 52.8214 32.2534 52.945 31.9285C53.0685 31.6047 52.9798 31.2383 52.7214 31.0067H52.7203ZM45.9612 30.7931C45.4995 30.7931 45.1253 31.1674 45.1253 31.6295V49.209C45.1253 49.3956 44.9748 49.5474 44.7894 49.5474H18.2083C18.023 49.5474 17.8724 49.3956 17.8724 49.209V31.6306C17.8724 31.1686 17.4972 30.7942 17.0354 30.7942H13.0222L30.5725 15.0572C31.068 14.5614 31.8983 14.53 32.46 15.0887L37.6091 19.7056C37.8551 19.9259 38.2068 19.981 38.5079 19.8461C38.809 19.7112 39.0033 19.4122 39.0033 19.0817V17.9631H43.4266V24.5462C43.4266 24.7834 43.5277 25.0105 43.7041 25.169L49.9755 30.7909H45.9612V30.7931Z" fill="#212121"/>
</svg>
