<svg width="64" height="64" viewBox="0 0 64 64" fill="none" xmlns="http://www.w3.org/2000/svg">
<rect x="21" y="24" width="34" height="34" rx="17" fill="#6AB86D" fill-opacity="0.4"/>
<path d="M51.7397 31.188L44.6509 24.8243V18.2617C44.6509 17.8314 44.3028 17.4827 43.8733 17.4827H38.2026C37.7731 17.4827 37.425 17.8314 37.425 18.2617V18.3381L33.9626 15.2317C33.439 14.7061 32.742 14.4171 31.9999 14.4171C31.2579 14.4171 30.5619 14.7061 30.0676 15.2024L12.2602 31.188C12.0198 31.4037 11.9372 31.7451 12.0522 32.0466C12.1682 32.3481 12.4566 32.5481 12.7785 32.5481H17.7689V48.1422C17.7689 49.1756 18.607 50.0153 19.6375 50.0153H44.3645C45.3939 50.0153 46.2321 49.1756 46.2321 48.1422V32.5481H51.2224C51.5454 32.5481 51.8338 32.3492 51.9488 32.0466C52.0637 31.7451 51.9812 31.4037 51.7408 31.188H51.7397ZM45.4524 30.9891C45.0229 30.9891 44.6749 31.3378 44.6749 31.7681V48.1412C44.6749 48.315 44.5348 48.4563 44.3624 48.4563H19.6365C19.464 48.4563 19.324 48.315 19.324 48.1412V31.7691C19.324 31.3388 18.9749 30.9902 18.5454 30.9902H14.8123L31.1377 16.3331C31.5986 15.8714 32.371 15.8421 32.8935 16.3624L37.6832 20.6625C37.9121 20.8677 38.2392 20.919 38.5193 20.7934C38.7994 20.6677 38.9802 20.3892 38.9802 20.0814V19.0396H43.0947V25.172C43.0947 25.3929 43.1888 25.6044 43.3528 25.752L49.1866 30.9891H45.4524Z" fill="#212121"/>
<path d="M27.3107 29.8196C27.5354 29.4521 27.4194 28.9726 27.0536 28.7485C26.6857 28.5234 26.2071 28.6396 25.9845 29.0071C23.7887 32.6036 25.0522 35.4274 26.0681 37.6962C27.0254 39.8374 27.7183 41.3838 26.0587 43.3145C25.7775 43.6401 25.8151 44.1332 26.1402 44.4138C26.2875 44.5405 26.4673 44.6023 26.6481 44.6023C26.8665 44.6023 27.0839 44.5101 27.2375 44.3311C29.542 41.6497 28.4509 39.2102 27.4873 37.0586C26.4882 34.8253 25.5434 32.7156 27.3107 29.8207V29.8196Z" fill="#212121"/>
<path d="M31.1138 29.8196C31.3385 29.4521 31.2224 28.9726 30.8567 28.7485C30.4888 28.5234 30.0112 28.6396 29.7875 29.0071C27.5928 32.6036 28.8563 35.4274 29.8711 37.6962C30.8295 39.8363 31.5213 41.3838 29.8617 43.3145C29.5816 43.6401 29.6182 44.1322 29.9443 44.4128C30.0906 44.5395 30.2714 44.6012 30.4512 44.6012C30.6696 44.6012 30.887 44.5091 31.0406 44.3301C33.345 41.6487 32.254 39.2092 31.2904 37.0576C30.2902 34.8243 29.3465 32.7156 31.1138 29.8196Z" fill="#212121"/>
<path d="M34.9168 29.8196C35.1415 29.4521 35.0255 28.9726 34.6597 28.7485C34.2918 28.5234 33.8142 28.6396 33.5906 29.0071C31.3959 32.6036 32.6594 35.4274 33.6731 37.6962C34.6315 39.8374 35.3233 41.3838 33.6637 43.3145C33.3836 43.6401 33.4202 44.1322 33.7463 44.4128C33.8926 44.5395 34.0734 44.6012 34.2532 44.6012C34.4716 44.6012 34.689 44.5091 34.8426 44.3301C37.147 41.6487 36.056 39.2092 35.0934 37.0576C34.0933 34.8233 33.1495 32.7146 34.9168 29.8196Z" fill="#212121"/>
<path d="M38.7199 29.8196C38.9436 29.4521 38.8286 28.9726 38.4618 28.7485C38.0949 28.5234 37.6163 28.6396 37.3926 29.0071C35.1979 32.6036 36.4614 35.4274 37.4762 37.6962C38.4335 39.8363 39.1264 41.3838 37.4668 43.3145C37.1867 43.6401 37.2233 44.1322 37.5484 44.4128C37.6957 44.5395 37.8755 44.6012 38.0552 44.6012C38.2736 44.6012 38.491 44.5091 38.6447 44.3301C40.9501 41.6487 39.858 39.2092 38.8944 37.0576C37.8964 34.8243 36.9516 32.7156 38.7199 29.8196Z" fill="#212121"/>
</svg>
