<svg width="64" height="64" viewBox="0 0 64 64" fill="none" xmlns="http://www.w3.org/2000/svg">
<path d="M53.7203 31.0078L46.0995 24.1752V17.1279C46.0995 16.6659 45.7254 16.2915 45.2636 16.2915H39.1675C38.7057 16.2915 38.3316 16.6659 38.3316 17.1279V17.21L34.6094 13.8746C34.0465 13.3103 33.2971 13 32.4994 13C31.7017 13 30.9535 13.3103 30.4221 13.8431L11.2786 31.0078C11.0202 31.2394 10.9315 31.6059 11.055 31.9296C11.1798 32.2534 11.4898 32.467 11.8359 32.467H17.2006V49.2101C17.2006 50.3197 18.1017 51.2212 19.2095 51.2212H45.7917C46.8983 51.2212 47.7994 50.3185 47.7994 49.2101V32.467H53.1641C53.5113 32.467 53.8214 32.2534 53.945 31.9296C54.0685 31.6059 53.9798 31.2394 53.7214 31.0078H53.7203ZM46.9612 30.7942C46.4995 30.7942 46.1253 31.1686 46.1253 31.6306V49.2101C46.1253 49.3967 45.9748 49.5485 45.7894 49.5485H19.2083C19.023 49.5485 18.8724 49.3967 18.8724 49.2101V31.6306C18.8724 31.1686 18.4972 30.7942 18.0354 30.7942H14.0222L31.5725 15.0583C32.068 14.5626 32.8983 14.5311 33.46 15.0898L38.6091 19.7067C38.8551 19.9259 39.2068 19.9821 39.5079 19.8472C39.809 19.7123 40.0033 19.4144 40.0033 19.0839V17.9665H44.4266V24.5496C44.4266 24.7879 44.5277 25.0138 44.7041 25.1723L50.9755 30.7942H46.9612Z" fill="#212121"/>
<path d="M32.5 24.5L31 26.5L35 28.5L37.5 31L39 32.5L40 33L42.5 32.5L43 30.5L42 26.5L40.5 24L37.5 23L35 23.5L32.5 24.5Z" fill="#DCD0E3"/>
<path d="M36.7519 21.656C32.9601 21.656 29.8738 24.7429 29.8738 28.5381V39.5728H29.1615C29.1491 39.5728 29.1379 39.5761 29.1256 39.5773C29.0031 39.4536 28.875 39.3367 28.7402 39.2254V29.3778C28.7402 27.659 27.3425 26.2605 25.6247 26.2605C23.9069 26.2605 22.5103 27.659 22.5103 29.3778V39.2254C21.361 40.1607 20.6869 41.5625 20.6869 43.0588C20.6869 45.7837 22.9024 47.9994 25.6247 47.9994C26.664 47.9994 27.629 47.6745 28.4256 47.1226C28.5661 47.3868 28.8413 47.57 29.1615 47.57H36.6519C37.1137 47.57 37.4878 47.1957 37.4878 46.7336V46.5167H39.3719C39.8337 46.5167 40.2078 46.1423 40.2078 45.6803V41.4636C40.2078 41.0016 39.8337 40.6272 39.3719 40.6272H37.4878V40.4103C37.4878 39.9482 37.1137 39.5739 36.6519 39.5739H35.1464V28.5392C35.1464 27.6534 35.8666 26.9328 36.7519 26.9328C37.6373 26.9328 38.3563 27.6534 38.3563 28.5392V32.784C38.3563 33.246 38.7304 33.6204 39.1922 33.6204H42.793C43.2548 33.6204 43.6289 33.246 43.6289 32.784V28.5392C43.6289 24.7441 40.5438 21.6571 36.7508 21.6571L36.7519 21.656ZM25.6247 46.3267C23.8248 46.3267 22.3598 44.8608 22.3598 43.0588C22.3598 41.9672 22.9024 40.951 23.8114 40.3417C24.0428 40.1866 24.1821 39.9258 24.1821 39.647V29.3778C24.1821 28.5819 24.8293 27.9344 25.6247 27.9344C26.4201 27.9344 27.0673 28.5819 27.0673 29.3778V39.647C27.0673 39.9258 27.2066 40.1866 27.438 40.3417C28.347 40.951 28.8896 41.9672 28.8896 43.0588C28.8896 44.8608 27.4246 46.3267 25.6236 46.3267H25.6247ZM38.5383 42.3011V44.8439H37.4901V42.3011H38.5383ZM35.8172 45.8984H29.6603C30.2277 45.0935 30.5636 44.1166 30.5636 43.0599C30.5636 42.4292 30.4378 41.8177 30.212 41.2478H35.8172V45.8984ZM41.9583 31.9476H40.0303V28.5392C40.0303 26.7304 38.5608 25.26 36.753 25.26C34.9453 25.26 33.4758 26.7316 33.4758 28.5392V39.5739H31.5478V28.5392C31.5478 25.667 33.8825 23.331 36.753 23.331C39.6236 23.331 41.9583 25.667 41.9583 28.5392V31.9476Z" fill="#212121"/>
<path d="M27.0167 40.9724L26.3089 40.4991V34.0183C26.3089 33.6406 26.0022 33.3337 25.6258 33.3337C25.2494 33.3337 24.9427 33.6406 24.9427 34.0183V40.4991L24.2349 40.9724C23.5361 41.4411 23.1193 42.2202 23.1193 43.0588C23.1193 44.4415 24.2439 45.5668 25.6258 45.5668C27.0077 45.5668 28.1335 44.4415 28.1335 43.0588C28.1335 42.2202 27.7155 41.4411 27.0178 40.9724H27.0167Z" fill="#212121"/>
</svg>
