<svg width="64" height="64" viewBox="0 0 64 64" fill="none" xmlns="http://www.w3.org/2000/svg">
<rect x="8" y="23" width="34" height="34" rx="17" fill="#EBCF39" fill-opacity="0.5"/>
<path d="M52.7249 30.5872L45.2817 23.9138V17.0318C45.2817 16.5805 44.9163 16.2149 44.4653 16.2149H38.5112C38.0602 16.2149 37.6948 16.5805 37.6948 17.0318V17.1119L34.0593 13.8543C33.5095 13.3031 32.7776 13.0001 31.9985 13.0001C31.2194 13.0001 30.4886 13.3031 29.9696 13.8235L11.2721 30.5872C11.0197 30.8134 10.9331 31.1713 11.0538 31.4875C11.1756 31.8038 11.4784 32.0135 11.8164 32.0135H17.0562V48.3665C17.0562 49.4502 17.9362 50.3308 19.0182 50.3308H44.981C46.0619 50.3308 46.942 49.4491 46.942 48.3665V32.0135H52.1817C52.5208 32.0135 52.8237 31.8049 52.9444 31.4875C53.0651 31.1713 52.9784 30.8134 52.726 30.5872H52.7249ZM46.1234 30.3786C45.6724 30.3786 45.307 30.7442 45.307 31.1955V48.3654C45.307 48.5477 45.1599 48.6959 44.9789 48.6959H19.0171C18.836 48.6959 18.689 48.5477 18.689 48.3654V31.1966C18.689 30.7453 18.3225 30.3797 17.8715 30.3797H13.9518L31.0932 15.0093C31.5771 14.5251 32.3881 14.4944 32.9367 15.0401L37.9658 19.5494C38.2061 19.7646 38.5496 19.8184 38.8437 19.6867C39.1378 19.5549 39.3276 19.2628 39.3276 18.94V17.8476H43.6478V24.2772C43.6478 24.5089 43.7465 24.7307 43.9188 24.8855L50.0441 30.3764H46.1234V30.3786Z" fill="#212121"/>
<path d="M32.5439 16.5168C32.2334 16.239 31.7637 16.239 31.4543 16.5168L26.7599 20.7253C26.4241 21.0261 26.3956 21.5433 26.6963 21.8793C26.9969 22.2152 27.5138 22.2427 27.8496 21.9429L31.9986 18.223L42.3124 27.4701V45.7006H37.7453C37.2943 45.7006 36.9289 46.0663 36.9289 46.5175C36.9289 46.9688 37.2943 47.3344 37.7453 47.3344H43.1288C43.5798 47.3344 43.9452 46.9688 43.9452 46.5175V27.1045C43.9452 26.8728 43.8464 26.651 43.6731 26.4962L32.5439 16.5168Z" fill="#212121"/>
<path d="M20.8672 30.8804C21.3182 30.8804 21.6836 30.5147 21.6836 30.0635V28.9743C21.6836 28.523 21.3182 28.1574 20.8672 28.1574C20.4162 28.1574 20.0508 28.523 20.0508 28.9743V30.0635C20.0508 30.5147 20.4162 30.8804 20.8672 30.8804Z" fill="#212121"/>
<path d="M20.8672 35.7839C20.4162 35.7839 20.0508 36.1495 20.0508 36.6008V37.6899C20.0508 38.1412 20.4162 38.5068 20.8672 38.5068C21.3182 38.5068 21.6836 38.1412 21.6836 37.6899V36.6008C21.6836 36.1495 21.3182 35.7839 20.8672 35.7839Z" fill="#212121"/>
<path d="M20.8672 42.3212C21.3182 42.3212 21.6836 41.9555 21.6836 41.5043V40.4151C21.6836 39.9638 21.3182 39.5982 20.8672 39.5982C20.4162 39.5982 20.0508 39.9638 20.0508 40.4151V41.5043C20.0508 41.9555 20.4162 42.3212 20.8672 42.3212Z" fill="#212121"/>
<path d="M21.6836 32.7875C21.6836 32.3363 21.3182 31.9706 20.8672 31.9706C20.4162 31.9706 20.0508 32.3363 20.0508 32.7875V33.8767C20.0508 34.328 20.4162 34.6936 20.8672 34.6936C21.3182 34.6936 21.6836 34.328 21.6836 33.8767V32.7875Z" fill="#212121"/>
<path d="M21.5036 27.3516C21.6979 27.3516 21.8921 27.2824 22.0479 27.1429L22.8599 26.4161C23.1957 26.1153 23.2243 25.5981 22.9236 25.2621C22.6218 24.9262 22.1061 24.8976 21.7703 25.1985L20.9594 25.9253C20.6236 26.2261 20.5962 26.7433 20.8968 27.0793C21.0581 27.2593 21.2809 27.3505 21.5047 27.3505L21.5036 27.3516Z" fill="#212121"/>
<path d="M23.4799 45.6995H22.3914C21.9404 45.6995 21.575 46.0651 21.575 46.5164C21.575 46.9677 21.9404 47.3333 22.3914 47.3333H23.4799C23.9309 47.3333 24.2963 46.9677 24.2963 46.5164C24.2963 46.0651 23.9309 45.6995 23.4799 45.6995Z" fill="#212121"/>
<path d="M34.9141 45.6995H33.8256C33.3746 45.6995 33.0092 46.0651 33.0092 46.5164C33.0092 46.9677 33.3746 47.3333 33.8256 47.3333H34.9141C35.3651 47.3333 35.7305 46.9677 35.7305 46.5164C35.7305 46.0651 35.3651 45.6995 34.9141 45.6995Z" fill="#212121"/>
<path d="M31.102 45.6995H30.0123C29.5613 45.6995 29.1959 46.0651 29.1959 46.5164C29.1959 46.9677 29.5613 47.3333 30.0123 47.3333H31.102C31.553 47.3333 31.9184 46.9677 31.9184 46.5164C31.9184 46.0651 31.553 45.6995 31.102 45.6995Z" fill="#212121"/>
<path d="M27.291 45.6995H26.2024C25.7514 45.6995 25.386 46.0651 25.386 46.5164C25.386 46.9677 25.7514 47.3333 26.2024 47.3333H27.291C27.742 47.3333 28.1074 46.9677 28.1074 46.5164C28.1074 46.0651 27.742 45.6995 27.291 45.6995Z" fill="#212121"/>
<path d="M25.7623 22.7181C25.4606 22.3822 24.9448 22.3536 24.609 22.6544L23.7981 23.3813C23.4623 23.6821 23.4338 24.1993 23.7345 24.5353C23.8958 24.7153 24.1196 24.8065 24.3435 24.8065C24.5377 24.8065 24.7319 24.7373 24.8889 24.5978L25.6998 23.871C26.0356 23.5701 26.0641 23.053 25.7634 22.717L25.7623 22.7181Z" fill="#212121"/>
<path d="M21.6836 44.2272C21.6836 43.7759 21.3182 43.4103 20.8672 43.4103C20.4162 43.4103 20.0508 43.7759 20.0508 44.2272V45.3163C20.0508 45.7676 20.4162 46.1332 20.8672 46.1332C21.3182 46.1332 21.6836 45.7676 21.6836 45.3163V44.2272Z" fill="#212121"/>
</svg>
